<svg width="108" height="28" viewBox="0 0 108 28" fill="none" xmlns="http://www.w3.org/2000/svg"><path d="M106.3 16.62C106.47 16.27 106.55 15.89 106.55 15.45L106.56 15.44C106.56 14.94 106.47 14.52 106.29 14.2C106.11 13.88 105.87 13.61 105.58 13.4C105.29 13.2 104.94 13.03 104.55 12.91C104.16 12.79 103.74 12.69 103.31 12.59C103.03 12.53 102.75 12.46 102.46 12.38C102.18 12.3 101.91 12.2 101.67 12.06C101.43 11.92 101.23 11.75 101.08 11.55C100.93 11.35 100.85 11.1 100.85 10.78C100.85 10.46 100.91 10.19 101.03 9.95001C101.15 9.72 101.3 9.51999 101.5 9.37C101.7 9.20999 101.92 9.10001 102.18 9.03C102.43 8.95001 102.7 8.92001 102.98 8.92001C103.44 8.92001 103.9 8.97 104.36 9.07999C104.82 9.19 105.26 9.35999 105.69 9.59L106.15 8.72C105.67 8.44 105.17 8.25 104.64 8.14999C104.11 8.04999 103.57 8 103.02 8C102.52 8 102.08 8.07001 101.69 8.20001C101.3 8.34 100.97 8.51999 100.69 8.76999C100.41 9.01999 100.2 9.31 100.05 9.64999C99.9 9.98999 99.83 10.36 99.83 10.77C99.83 11.24 99.92 11.62 100.1 11.94C100.28 12.25 100.51 12.51 100.8 12.72C101.09 12.93 101.42 13.1 101.79 13.22C102.16 13.35 102.54 13.44 102.94 13.51C103.24 13.56 103.55 13.63 103.85 13.71C104.15 13.79 104.43 13.9 104.67 14.04C104.91 14.18 105.12 14.36 105.27 14.58C105.42 14.8 105.5 15.09 105.5 15.45C105.5 16.05 105.27 16.52 104.83 16.84C104.39 17.16 103.8 17.32 103.08 17.32C102.54 17.32 102.01 17.23 101.5 17.05C100.99 16.87 100.51 16.64 100.07 16.36L99.53 17.11C100.07 17.49 100.62 17.77 101.2 17.95C101.77 18.14 102.39 18.23 103.06 18.23C103.58 18.23 104.06 18.17 104.49 18.04C104.92 17.91 105.29 17.73 105.59 17.49C105.9 17.25 106.13 16.96 106.3 16.62Z" fill="white"/><path d="M95.95 8.06C97.01 8.06 97.91 8.34 98.65 8.88998L98.13 9.69C97.84 9.47 97.5099 9.29999 97.12 9.17999C96.74 9.06998 96.35 9.00998 95.95 9.00998C95.63 9.00998 95.3199 9.06 95.02 9.14999C94.72 9.25 94.45 9.39999 94.21 9.59998C93.97 9.81 93.78 10.07 93.63 10.39C93.48 10.71 93.41 11.1 93.41 11.55V14.74C93.41 15.2 93.49 15.58 93.64 15.91C93.79 16.23 93.98 16.5 94.22 16.7C94.46 16.91 94.72 17.06 95.02 17.16C95.3199 17.26 95.62 17.31 95.92 17.31C96.32 17.31 96.72 17.25 97.11 17.14C97.5 17.03 97.84 16.85 98.15 16.59L98.66 17.37C98.3799 17.59 97.9999 17.79 97.53 17.96C97.06 18.13 96.53 18.22 95.95 18.22C95.44 18.22 94.97 18.15 94.54 17.99C94.11 17.83 93.74 17.61 93.42 17.32C93.1 17.03 92.85 16.68 92.6799 16.28C92.4999 15.87 92.41 15.42 92.41 14.92V11.32C92.41 10.83 92.5 10.38 92.6899 9.97998C92.87 9.57999 93.12 9.22998 93.4399 8.94998C93.7599 8.65997 94.1299 8.44 94.5599 8.28C94.99 8.12 95.45 8.04999 95.96 8.04999L95.95 8.06Z" fill="white"/><path fill-rule="evenodd" clip-rule="evenodd" d="M47.64 16.38C47.84 15.97 47.94 15.5 47.94 14.96L47.96 14.97V11.36C47.96 10.83 47.85 10.36 47.64 9.95001C47.43 9.54001 47.15 9.19 46.79 8.92001C46.43 8.64001 46.02 8.44 45.56 8.29001C45.1 8.14001 44.62 8.07001 44.13 8.07001C43.64 8.07001 43.16 8.14001 42.7 8.27002C42.24 8.41 41.83 8.61002 41.47 8.88C41.12 9.14001 40.83 9.48001 40.62 9.89001C40.41 10.29 40.3 10.76 40.3 11.29V14.96C40.3 15.5 40.4 15.97 40.6 16.38C40.8 16.79 41.07 17.13 41.42 17.41C41.76 17.69 42.17 17.9 42.64 18.04C43.11 18.18 43.6 18.25 44.12 18.25C44.64 18.25 45.13 18.18 45.6 18.04C46.07 17.9 46.47 17.69 46.82 17.41C47.16 17.13 47.44 16.79 47.64 16.38ZM45.8 10.86C45.91 11.08 45.96 11.36 45.96 11.69V14.6C45.96 14.93 45.91 15.21 45.8 15.44C45.69 15.67 45.55 15.86 45.38 16C45.2 16.14 45.01 16.25 44.79 16.31C44.58 16.37 44.35 16.4 44.12 16.4C43.89 16.4 43.66 16.37 43.44 16.31C43.22 16.25 43.03 16.15 42.85 16C42.68 15.86 42.54 15.67 42.43 15.44C42.32 15.21 42.27 14.93 42.27 14.6V11.69C42.27 11.36 42.32 11.09 42.43 10.86C42.54 10.63 42.68 10.44 42.85 10.3C43.02 10.15 43.22 10.05 43.44 9.98001C43.66 9.91 43.89 9.88 44.12 9.88C44.35 9.88 44.57 9.91 44.79 9.98001C45.01 10.05 45.21 10.15 45.38 10.3C45.55 10.45 45.69 10.64 45.8 10.86Z" fill="white"/><path d="M35.68 14.62L36.6 12.78H36.66V18.14H38.64V8.16H36.82L35.11 11.62L33.89 14.14H33.8L32.6 11.68L30.82 8.16H29V18.14H30.98V12.78H31.04L32.01 14.66L33.12 16.77H34.55L35.68 14.62Z" fill="white"/><path fill-rule="evenodd" clip-rule="evenodd" d="M57.15 15.18C57.15 15.58 57.09 15.97 56.96 16.32C56.84 16.67 56.65 16.99 56.41 17.26C56.17 17.53 55.8699 17.74 55.5099 17.9C55.15 18.06 54.74 18.14 54.27 18.14H49.59V8.16H54.08C54.58 8.16 55.0099 8.23001 55.38 8.38C55.74 8.53 56.04 8.72 56.28 8.97C56.52 9.22 56.6899 9.51001 56.8099 9.84C56.93 10.17 56.98 10.51 56.98 10.87C56.98 11.23 56.88 11.61 56.68 12C56.48 12.39 56.17 12.69 55.75 12.9C55.99 13.02 56.2 13.16 56.37 13.34C56.55 13.52 56.69 13.71 56.8 13.92C56.91 14.13 56.9999 14.34 57.0599 14.56C57.12 14.78 57.15 14.98 57.15 15.17V15.18ZM54.9399 11.07C54.9399 10.71 54.83 10.42 54.61 10.23C54.39 10.04 54.05 9.94 53.59 9.94H51.58V12.13H53.62C54.04 12.13 54.36 12.04 54.59 11.84C54.8199 11.65 54.9399 11.39 54.9399 11.07ZM55.05 15.11C55.05 14.72 54.93 14.41 54.6899 14.18C54.45 13.95 54.12 13.83 53.6899 13.83H51.58V16.36H53.71C54.16 16.36 54.49 16.25 54.72 16.02C54.95 15.8 55.0599 15.49 55.0599 15.11H55.05Z" fill="white"/><path fill-rule="evenodd" clip-rule="evenodd" d="M60.64 16.08H64.12L64.73 18.14H66.89L63.41 8.16H61.38L57.87 18.14H59.99L60.64 16.08ZM63.58 14.42H61.18V14.41L61.58 13.09L62.35 10.5H62.41L63.19 13.14L63.58 14.42Z" fill="white"/><path d="M67.91 18.14V8.16H68.93V17.23H74.43V18.14H67.91Z" fill="white"/><path d="M76.15 18.14H77.16V14.33L80.16 8.16H79.07C79.02 8.26001 78.93 8.44 78.81 8.70001C78.7341 8.8577 78.6547 9.02902 78.57 9.21201L78.5447 9.26657C78.4921 9.38025 78.4373 9.4982 78.38 9.62C78.22 9.95999 78.05 10.33 77.87 10.71C77.7 11.1 77.52 11.46 77.36 11.81C77.2901 11.963 77.2221 12.1083 77.1577 12.246L77.1571 12.2471C77.0743 12.424 76.9974 12.5883 76.93 12.74C76.8 13.01 76.72 13.19 76.67 13.3C76.6164 13.2061 76.5538 13.0764 76.4761 12.9136L76.3987 12.7516L76.35 12.65C76.21 12.36 76.06 12.04 75.89 11.69C75.72 11.34 75.55 10.97 75.37 10.59C75.2776 10.3949 75.1904 10.2051 75.1058 10.0219C75.0257 9.84827 74.9478 9.68057 74.87 9.51999C74.7697 9.29269 74.674 9.08774 74.5885 8.90509L74.588 8.90381L74.5245 8.76788L74.5005 8.7164L74.47 8.64999C74.36 8.39999 74.28 8.23999 74.24 8.16H73.12L73.6241 9.18588C73.9652 9.87927 74.3049 10.5696 74.64 11.26C75.15 12.28 75.65 13.32 76.15 14.36V18.14Z" fill="white"/><path d="M85.37 9.10001V18.14H84.36V9.10001H81.34V8.16H88.35V9.10001H85.37Z" fill="white"/><path d="M89.4299 8.16H90.4399V18.14H89.4299V8.16Z" fill="white"/><path fill-rule="evenodd" clip-rule="evenodd" d="M1.87665 6.76027L12.7689 0.870483L13.0645 4.49318L1.87665 6.76027Z" fill="#535072"/><path fill-rule="evenodd" clip-rule="evenodd" d="M24.3543 6.63458L12.7569 0.79985L13.0645 4.4932L24.3543 6.63458Z" fill="#7A7397"/><path fill-rule="evenodd" clip-rule="evenodd" d="M13.6801 26.0566L20.5571 17.4415L24.3543 19.1748L13.6801 26.0566Z" fill="#272643"/><path fill-rule="evenodd" clip-rule="evenodd" d="M13.68 26.0566L6.80332 17.7467L1.8717 19.2204L13.68 26.0566Z" fill="#27283E"/><path fill-rule="evenodd" clip-rule="evenodd" d="M24.3543 6.63458V19.1749L20.5571 17.4415L24.3543 6.63458Z" fill="#2D2D45"/><path fill-rule="evenodd" clip-rule="evenodd" d="M1.87663 7.09276L1.8717 19.2204L6.80332 17.7467L1.87663 7.09276Z" fill="#202134"/><path fill-rule="evenodd" clip-rule="evenodd" d="M24.3543 6.63457L20.5571 17.4415L12.99 4.49319L24.3543 6.63457Z" fill="#42416C"/><path fill-rule="evenodd" clip-rule="evenodd" d="M1.87665 6.61683L6.78578 17.7467L13.0645 4.49319L1.87665 6.61683Z" fill="#363257"/><path fill-rule="evenodd" clip-rule="evenodd" d="M13.68 26.0566L20.5571 17.4415L6.78577 17.7467L13.68 26.0566Z" fill="#484979"/><path fill-rule="evenodd" clip-rule="evenodd" d="M13.0645 4.49319L6.80334 17.7467L20.5571 17.4415L13.0645 4.49319Z" fill="#363356"/><path fill-rule="evenodd" clip-rule="evenodd" d="M20.5226 17.8884L20.6125 18.045L20.7018 17.7908L23.7779 19.2779L14.8326 25.0172L20.5226 17.8884ZM6.64598 18.0575L6.77777 18.356L6.85074 18.2013L12.5879 25.1334L2.50356 19.2954L6.64598 18.0575ZM6.4406 17.5923L2.12513 18.8824L2.12944 8.24252L6.19734 17.0402L6.4406 17.5923ZM12.7144 4.30294L3.47904 6.05557L12.5475 1.27241L12.784 4.17387L12.6227 4.14298L12.7144 4.30294ZM13.4368 4.29774L13.5049 4.15399L13.3469 4.18396L13.1332 1.29535L22.6208 6.04761L13.4368 4.29774ZM20.8721 17.3084L24.1009 8.11987V18.7818L20.8721 17.3084ZM20.0238 17.7042L13.6764 25.6562L7.32956 17.9872L20.0238 17.7042ZM11.625 5.02204L12.6233 4.83271L6.79747 17.132L6.65829 16.8313L2.23598 6.80464L11.625 5.02204ZM24.0181 6.82666L20.5007 16.8365L13.6083 4.84372L18.6258 5.79894L24.0181 6.82666ZM13.0867 5.03703L20.1245 17.1989L7.20608 17.4865L13.0867 5.03703ZM24.6078 19.344L24.8076 19.2158L24.6078 19.1192V6.72542L24.6453 6.73245L24.6078 6.71379V6.67709L24.6903 6.44218L24.4372 6.39386L13.0063 0.668625L12.99 0.468282L12.8034 0.566771L12.562 0.445953L12.5796 0.684836L1.79134 6.37642L1.5173 6.42842L1.63492 6.69544L1.60752 6.71012L1.63892 6.70401L1.74639 6.94778L1.62322 6.9747L1.61829 19.0338L1.24048 19.1467L1.61829 19.3657V19.5596L1.83969 19.4936L13.6591 26.3358L13.6847 26.3058L13.7121 26.3358L24.4045 19.4746L24.6078 19.5673V19.344Z" fill="white"/><path fill-rule="evenodd" clip-rule="evenodd" d="M24.6617 6.63456C24.6617 6.80279 24.524 6.93981 24.3544 6.93981C24.1847 6.93981 24.0471 6.80279 24.0471 6.63456C24.0471 6.46541 24.1847 6.32838 24.3544 6.32838C24.524 6.32838 24.6617 6.46541 24.6617 6.63456Z" fill="white"/><path fill-rule="evenodd" clip-rule="evenodd" d="M24.3543 6.47491C24.2663 6.47491 24.1948 6.54648 24.1948 6.63457C24.1948 6.72174 24.2663 6.7927 24.3543 6.7927C24.4424 6.7927 24.5138 6.72174 24.5138 6.63457C24.5138 6.54648 24.4424 6.47491 24.3543 6.47491ZM24.3543 7.08664C24.1034 7.08664 23.8989 6.88385 23.8989 6.63457C23.8989 6.38437 24.1034 6.18127 24.3543 6.18127C24.6053 6.18127 24.8097 6.38437 24.8097 6.63457C24.8097 6.88385 24.6053 7.08664 24.3543 7.08664Z" fill="white"/><path fill-rule="evenodd" clip-rule="evenodd" d="M24.3543 6.52079C24.2915 6.52079 24.2401 6.57187 24.2401 6.63457C24.2401 6.69697 24.2915 6.74744 24.3543 6.74744C24.4175 6.74744 24.4686 6.69697 24.4686 6.63457C24.4686 6.57187 24.4175 6.52079 24.3543 6.52079ZM24.3543 7.35795C23.9525 7.35795 23.6252 7.03343 23.6252 6.63457C23.6252 6.2345 23.9525 5.90997 24.3543 5.90997C24.7562 5.90997 25.0835 6.2345 25.0835 6.63457C25.0835 7.03343 24.7562 7.35795 24.3543 7.35795Z" fill="white"/><path fill-rule="evenodd" clip-rule="evenodd" d="M24.3543 6.89457C24.2099 6.89457 24.0923 6.77804 24.0923 6.63459C24.0923 6.49052 24.2099 6.37368 24.3543 6.37368C24.4987 6.37368 24.6167 6.49052 24.6167 6.63459C24.6167 6.77804 24.4987 6.89457 24.3543 6.89457ZM24.3543 6.05711C24.0341 6.05711 23.7733 6.31618 23.7733 6.63459C23.7733 6.95238 24.0341 7.21115 24.3543 7.21115C24.6748 7.21115 24.9353 6.95238 24.9353 6.63459C24.9353 6.31618 24.6748 6.05711 24.3543 6.05711ZM24.3543 7.50508C23.8706 7.50508 23.4774 7.11449 23.4774 6.63459C23.4774 6.15407 23.8706 5.76317 24.3543 5.76317C24.8377 5.76317 25.2313 6.15407 25.2313 6.63459C25.2313 7.11449 24.8377 7.50508 24.3543 7.50508Z" fill="white"/><path fill-rule="evenodd" clip-rule="evenodd" d="M20.8638 17.4415C20.8638 17.6103 20.7264 17.7468 20.5571 17.7468C20.3868 17.7468 20.2495 17.6103 20.2495 17.4415C20.2495 17.273 20.3868 17.1359 20.5571 17.1359C20.7264 17.1359 20.8638 17.273 20.8638 17.4415Z" fill="white"/><path fill-rule="evenodd" clip-rule="evenodd" d="M20.5571 17.2827C20.469 17.2827 20.3973 17.354 20.3973 17.4415C20.3973 17.5287 20.469 17.5996 20.5571 17.5996C20.6445 17.5996 20.716 17.5287 20.716 17.4415C20.716 17.354 20.6445 17.2827 20.5571 17.2827ZM20.5571 17.8936C20.3058 17.8936 20.1017 17.6905 20.1017 17.4415C20.1017 17.1919 20.3058 16.9891 20.5571 16.9891C20.8077 16.9891 21.0119 17.1919 21.0119 17.4415C21.0119 17.6905 20.8077 17.8936 20.5571 17.8936Z" fill="white"/><path fill-rule="evenodd" clip-rule="evenodd" d="M20.5571 17.3277C20.4937 17.3277 20.4425 17.3788 20.4425 17.4415C20.4425 17.5039 20.4937 17.555 20.5571 17.555C20.6199 17.555 20.671 17.5039 20.671 17.4415C20.671 17.3788 20.6199 17.3277 20.5571 17.3277ZM20.5571 18.1658C20.155 18.1658 19.8279 17.8403 19.8279 17.4415C19.8279 17.0414 20.155 16.7169 20.5571 16.7169C20.9589 16.7169 21.2856 17.0414 21.2856 17.4415C21.2856 17.8403 20.9589 18.1658 20.5571 18.1658Z" fill="white"/><path fill-rule="evenodd" clip-rule="evenodd" d="M20.5571 17.7018C20.4121 17.7018 20.2945 17.5849 20.2945 17.4415C20.2945 17.2974 20.4121 17.1806 20.5571 17.1806C20.7012 17.1806 20.8189 17.2974 20.8189 17.4415C20.8189 17.5849 20.7012 17.7018 20.5571 17.7018ZM20.5571 16.864C20.2366 16.864 19.9761 17.1231 19.9761 17.4415C19.9761 17.7596 20.2366 18.0187 20.5571 18.0187C20.8774 18.0187 21.1379 17.7596 21.1379 17.4415C21.1379 17.1231 20.8774 16.864 20.5571 16.864ZM20.5571 18.3126C20.0734 18.3126 19.6802 17.9217 19.6802 17.4415C19.6802 16.961 20.0734 16.5701 20.5571 16.5701C21.0403 16.5701 21.4335 16.961 21.4335 17.4415C21.4335 17.9217 21.0403 18.3126 20.5571 18.3126Z" fill="white"/><path fill-rule="evenodd" clip-rule="evenodd" d="M24.6617 19.1748C24.6617 19.3428 24.524 19.4801 24.3544 19.4801C24.1847 19.4801 24.0471 19.3428 24.0471 19.1748C24.0471 19.0057 24.1847 18.8696 24.3544 18.8696C24.524 18.8696 24.6617 19.0057 24.6617 19.1748Z" fill="white"/><path fill-rule="evenodd" clip-rule="evenodd" d="M24.3543 19.0161C24.2663 19.0161 24.1948 19.0871 24.1948 19.1745C24.1948 19.262 24.2663 19.333 24.3543 19.333C24.4424 19.333 24.5138 19.262 24.5138 19.1745C24.5138 19.0871 24.4424 19.0161 24.3543 19.0161ZM24.3543 19.6269C24.1034 19.6269 23.8989 19.4238 23.8989 19.1745C23.8989 18.9252 24.1034 18.7222 24.3543 18.7222C24.6053 18.7222 24.8097 18.9252 24.8097 19.1745C24.8097 19.4238 24.6053 19.6269 24.3543 19.6269Z" fill="white"/><path fill-rule="evenodd" clip-rule="evenodd" d="M24.3543 19.0608C24.2915 19.0608 24.2401 19.1118 24.2401 19.1748C24.2401 19.2372 24.2915 19.2886 24.3543 19.2886C24.4175 19.2886 24.4686 19.2372 24.4686 19.1748C24.4686 19.1118 24.4175 19.0608 24.3543 19.0608ZM24.3543 19.8982C23.9525 19.8982 23.6252 19.5737 23.6252 19.1748C23.6252 18.7757 23.9525 18.4509 24.3543 18.4509C24.7562 18.4509 25.0835 18.7757 25.0835 19.1748C25.0835 19.5737 24.7562 19.8982 24.3543 19.8982Z" fill="white"/><path fill-rule="evenodd" clip-rule="evenodd" d="M24.3543 19.4354C24.2099 19.4354 24.0923 19.3183 24.0923 19.1745C24.0923 19.0308 24.2099 18.9139 24.3543 18.9139C24.4987 18.9139 24.6167 19.0308 24.6167 19.1745C24.6167 19.3183 24.4987 19.4354 24.3543 19.4354ZM24.3543 18.5977C24.0341 18.5977 23.7733 18.8564 23.7733 19.1745C23.7733 19.4926 24.0341 19.7511 24.3543 19.7511C24.6748 19.7511 24.9353 19.4926 24.9353 19.1745C24.9353 18.8564 24.6748 18.5977 24.3543 18.5977ZM24.3543 20.045C23.8706 20.045 23.4774 19.6547 23.4774 19.1745C23.4774 18.6943 23.8706 18.3037 24.3543 18.3037C24.8377 18.3037 25.2313 18.6943 25.2313 19.1745C25.2313 19.6547 24.8377 20.045 24.3543 20.045Z" fill="white"/><path fill-rule="evenodd" clip-rule="evenodd" d="M13.9873 25.8474C13.9873 26.0156 13.8497 26.1526 13.68 26.1526C13.5101 26.1526 13.3724 26.0156 13.3724 25.8474C13.3724 25.6791 13.5101 25.5421 13.68 25.5421C13.8497 25.5421 13.9873 25.6791 13.9873 25.8474Z" fill="white"/><path fill-rule="evenodd" clip-rule="evenodd" d="M13.68 25.6889C13.5923 25.6889 13.5205 25.7602 13.5205 25.8473C13.5205 25.9348 13.5923 26.0061 13.68 26.0061C13.7678 26.0061 13.8395 25.9348 13.8395 25.8473C13.8395 25.7602 13.7678 25.6889 13.68 25.6889ZM13.68 26.3C13.4288 26.3 13.2246 26.0966 13.2246 25.8473C13.2246 25.5984 13.4288 25.3953 13.68 25.3953C13.931 25.3953 14.1351 25.5984 14.1351 25.8473C14.1351 26.0966 13.931 26.3 13.68 26.3Z" fill="white"/><path fill-rule="evenodd" clip-rule="evenodd" d="M13.6801 25.7336C13.617 25.7336 13.5655 25.784 13.5655 25.8473C13.5655 25.9097 13.617 25.9602 13.6801 25.9602C13.7432 25.9602 13.7946 25.9097 13.7946 25.8473C13.7946 25.784 13.7432 25.7336 13.6801 25.7336ZM13.6801 26.571C13.2782 26.571 12.9509 26.2465 12.9509 25.8473C12.9509 25.4473 13.2782 25.123 13.6801 25.123C14.0822 25.123 14.4086 25.4473 14.4086 25.8473C14.4086 26.2465 14.0822 26.571 13.6801 26.571Z" fill="white"/><path fill-rule="evenodd" clip-rule="evenodd" d="M13.6801 26.1073C13.5354 26.1073 13.4175 25.9908 13.4175 25.8473C13.4175 25.7033 13.5354 25.5867 13.6801 25.5867C13.8248 25.5867 13.9425 25.7033 13.9425 25.8473C13.9425 25.9908 13.8248 26.1073 13.6801 26.1073ZM13.6801 25.2699C13.3599 25.2699 13.0991 25.5289 13.0991 25.8473C13.0991 26.1651 13.3599 26.4242 13.6801 26.4242C14.0003 26.4242 14.2608 26.1651 14.2608 25.8473C14.2608 25.5289 14.0003 25.2699 13.6801 25.2699ZM13.6801 26.7178C13.1967 26.7178 12.8035 26.3272 12.8035 25.8473C12.8035 25.3668 13.1967 24.9759 13.6801 24.9759C14.1635 24.9759 14.5568 25.3668 14.5568 25.8473C14.5568 26.3272 14.1635 26.7178 13.6801 26.7178Z" fill="white"/><path fill-rule="evenodd" clip-rule="evenodd" d="M7.11033 17.7468C7.11033 17.9156 6.97269 18.052 6.80333 18.052C6.63336 18.052 6.49603 17.9156 6.49603 17.7468C6.49603 17.5782 6.63336 17.4421 6.80333 17.4421C6.97269 17.4421 7.11033 17.5782 7.11033 17.7468Z" fill="white"/><path fill-rule="evenodd" clip-rule="evenodd" d="M6.80331 17.5892C6.71555 17.5892 6.64381 17.6596 6.64381 17.7467C6.64381 17.8339 6.71555 17.9052 6.80331 17.9052C6.89107 17.9052 6.9625 17.8339 6.9625 17.7467C6.9625 17.6596 6.89107 17.5892 6.80331 17.5892ZM6.80331 18.1988C6.55236 18.1988 6.34821 17.996 6.34821 17.7467C6.34821 17.4978 6.55236 17.2953 6.80331 17.2953C7.05426 17.2953 7.2581 17.4978 7.2581 17.7467C7.2581 17.996 7.05426 18.1988 6.80331 18.1988Z" fill="white"/><path fill-rule="evenodd" clip-rule="evenodd" d="M6.8033 17.6336C6.74018 17.6336 6.68876 17.685 6.68876 17.7468C6.68876 17.8101 6.74018 17.8605 6.8033 17.8605C6.86643 17.8605 6.91754 17.8101 6.91754 17.7468C6.91754 17.685 6.86643 17.6336 6.8033 17.6336ZM6.8033 18.471C6.40147 18.471 6.07446 18.1465 6.07446 17.7468C6.07446 17.3476 6.40147 17.0231 6.8033 17.0231C7.20514 17.0231 7.53184 17.3476 7.53184 17.7468C7.53184 18.1465 7.20514 18.471 6.8033 18.471Z" fill="white"/><path fill-rule="evenodd" clip-rule="evenodd" d="M6.80328 18.0076C6.65856 18.0076 6.54062 17.8905 6.54062 17.7467C6.54062 17.603 6.65856 17.4867 6.80328 17.4867C6.948 17.4867 7.06562 17.603 7.06562 17.7467C7.06562 17.8905 6.948 18.0076 6.80328 18.0076ZM6.80328 17.1699C6.48304 17.1699 6.22224 17.4286 6.22224 17.7467C6.22224 18.0648 6.48304 18.3239 6.80328 18.3239C7.12351 18.3239 7.3837 18.0648 7.3837 17.7467C7.3837 17.4286 7.12351 17.1699 6.80328 17.1699ZM6.80328 18.6178C6.31985 18.6178 5.92664 18.2269 5.92664 17.7467C5.92664 17.2665 6.31985 16.8759 6.80328 16.8759C7.2864 16.8759 7.67961 17.2665 7.67961 17.7467C7.67961 18.2269 7.2864 18.6178 6.80328 18.6178Z" fill="white"/><path fill-rule="evenodd" clip-rule="evenodd" d="M2.18425 6.61683C2.18425 6.78505 2.0463 6.92117 1.87664 6.92117C1.70698 6.92117 1.56934 6.78505 1.56934 6.61683C1.56934 6.44768 1.70698 6.31065 1.87664 6.31065C2.0463 6.31065 2.18425 6.44768 2.18425 6.61683Z" fill="white"/><path fill-rule="evenodd" clip-rule="evenodd" d="M1.87692 6.45748C1.78855 6.45748 1.71742 6.52905 1.71742 6.61684C1.71742 6.70401 1.78855 6.77436 1.87692 6.77436C1.96468 6.77436 2.03611 6.70401 2.03611 6.61684C2.03611 6.52905 1.96468 6.45748 1.87692 6.45748ZM1.87692 7.0683C1.62566 7.0683 1.42151 6.86581 1.42151 6.61684C1.42151 6.36694 1.62566 6.16385 1.87692 6.16385C2.12787 6.16385 2.33202 6.36694 2.33202 6.61684C2.33202 6.86581 2.12787 7.0683 1.87692 7.0683Z" fill="white"/><path fill-rule="evenodd" clip-rule="evenodd" d="M1.87661 6.50213C1.81348 6.50213 1.76206 6.55351 1.76206 6.61683C1.76206 6.67922 1.81348 6.73 1.87661 6.73C1.93973 6.73 1.99115 6.67922 1.99115 6.61683C1.99115 6.55351 1.93973 6.50213 1.87661 6.50213ZM1.87661 7.34051C1.47477 7.34051 1.14777 7.01507 1.14777 6.61683C1.14777 6.21675 1.47477 5.89223 1.87661 5.89223C2.27844 5.89223 2.60545 6.21675 2.60545 6.61683C2.60545 7.01507 2.27844 7.34051 1.87661 7.34051Z" fill="white"/><path fill-rule="evenodd" clip-rule="evenodd" d="M1.87695 6.87681C1.73192 6.87681 1.6143 6.75997 1.6143 6.61682C1.6143 6.47245 1.73192 6.35531 1.87695 6.35531C2.02136 6.35531 2.13899 6.47245 2.13899 6.61682C2.13899 6.75997 2.02136 6.87681 1.87695 6.87681ZM1.87695 6.03935C1.55641 6.03935 1.29591 6.29842 1.29591 6.61682C1.29591 6.93493 1.55641 7.19338 1.87695 7.19338C2.19718 7.19338 2.45768 6.93493 2.45768 6.61682C2.45768 6.29842 2.19718 6.03935 1.87695 6.03935ZM1.87695 7.48732C1.39321 7.48732 1 7.09673 1 6.61682C1 6.13631 1.39321 5.74541 1.87695 5.74541C2.36007 5.74541 2.75359 6.13631 2.75359 6.61682C2.75359 7.09673 2.36007 7.48732 1.87695 7.48732Z" fill="white"/><path fill-rule="evenodd" clip-rule="evenodd" d="M13.3715 4.49318C13.3715 4.66141 13.2336 4.79783 13.0645 4.79783C12.8942 4.79783 12.7569 4.66141 12.7569 4.49318C12.7569 4.32404 12.8942 4.18793 13.0645 4.18793C13.2336 4.18793 13.3715 4.32404 13.3715 4.49318Z" fill="white"/><path fill-rule="evenodd" clip-rule="evenodd" d="M13.0645 4.33506C12.9764 4.33506 12.9047 4.40572 12.9047 4.49319C12.9047 4.58006 12.9764 4.65102 13.0645 4.65102C13.1522 4.65102 13.2234 4.58006 13.2234 4.49319C13.2234 4.40572 13.1522 4.33506 13.0645 4.33506ZM13.0645 4.94496C12.8132 4.94496 12.6088 4.74217 12.6088 4.49319C12.6088 4.24422 12.8132 4.04112 13.0645 4.04112C13.3151 4.04112 13.5193 4.24422 13.5193 4.49319C13.5193 4.74217 13.3151 4.94496 13.0645 4.94496Z" fill="white"/><path fill-rule="evenodd" clip-rule="evenodd" d="M13.0645 4.37942C13.001 4.37942 12.9499 4.4308 12.9499 4.4932C12.9499 4.5556 13.001 4.60637 13.0645 4.60637C13.1273 4.60637 13.1784 4.5556 13.1784 4.4932C13.1784 4.4308 13.1273 4.37942 13.0645 4.37942ZM13.0645 5.2178C12.662 5.2178 12.3353 4.89236 12.3353 4.4932C12.3353 4.09343 12.662 3.76891 13.0645 3.76891C13.466 3.76891 13.793 4.09343 13.793 4.4932C13.793 4.89236 13.466 5.2178 13.0645 5.2178Z" fill="white"/><path fill-rule="evenodd" clip-rule="evenodd" d="M13.0646 4.75319C12.9199 4.75319 12.8019 4.63665 12.8019 4.4932C12.8019 4.34944 12.9199 4.2326 13.0646 4.2326C13.209 4.2326 13.3266 4.34944 13.3266 4.4932C13.3266 4.63665 13.209 4.75319 13.0646 4.75319ZM13.0646 3.91572C12.7443 3.91572 12.4835 4.1751 12.4835 4.4932C12.4835 4.81161 12.7443 5.07068 13.0646 5.07068C13.3848 5.07068 13.645 4.81161 13.645 4.4932C13.645 4.1751 13.3848 3.91572 13.0646 3.91572ZM13.0646 5.36461C12.5808 5.36461 12.1876 4.97372 12.1876 4.4932C12.1876 4.01268 12.5808 3.62178 13.0646 3.62178C13.5477 3.62178 13.9409 4.01268 13.9409 4.4932C13.9409 4.97372 13.5477 5.36461 13.0646 5.36461Z" fill="white"/><path fill-rule="evenodd" clip-rule="evenodd" d="M13.0765 0.870503C13.0765 1.03965 12.9389 1.17576 12.7692 1.17576C12.5996 1.17576 12.4619 1.03965 12.4619 0.870503C12.4619 0.702276 12.5996 0.564941 12.7692 0.564941C12.9389 0.564941 13.0765 0.702276 13.0765 0.870503Z" fill="white"/><path fill-rule="evenodd" clip-rule="evenodd" d="M12.7693 0.711754C12.6815 0.711754 12.6097 0.783021 12.6097 0.870194C12.6097 0.957366 12.6815 1.02863 12.7693 1.02863C12.857 1.02863 12.9284 0.957366 12.9284 0.870194C12.9284 0.783021 12.857 0.711754 12.7693 0.711754ZM12.7693 1.32257C12.5183 1.32257 12.3141 1.11948 12.3141 0.870194C12.3141 0.620912 12.5183 0.418121 12.7693 0.418121C13.0202 0.418121 13.2244 0.620912 13.2244 0.870194C13.2244 1.11948 13.0202 1.32257 12.7693 1.32257Z" fill="white"/><path fill-rule="evenodd" clip-rule="evenodd" d="M12.7693 0.756713C12.7064 0.756713 12.6547 0.807792 12.6547 0.870495C12.6547 0.932892 12.7064 0.983972 12.7693 0.983972C12.8324 0.983972 12.8838 0.932892 12.8838 0.870495C12.8838 0.807792 12.8324 0.756713 12.7693 0.756713ZM12.7693 1.59479C12.3674 1.59479 12.0401 1.26965 12.0401 0.870495C12.0401 0.471338 12.3674 0.146812 12.7693 0.146812C13.1714 0.146812 13.4981 0.471338 13.4981 0.870495C13.4981 1.26965 13.1714 1.59479 12.7693 1.59479Z" fill="white"/><path fill-rule="evenodd" clip-rule="evenodd" d="M12.7693 1.1311C12.6246 1.1311 12.5069 1.01395 12.5069 0.870194C12.5069 0.726436 12.6246 0.609594 12.7693 0.609594C12.9137 0.609594 13.0316 0.726436 13.0316 0.870194C13.0316 1.01395 12.9137 1.1311 12.7693 1.1311ZM12.7693 0.293939C12.449 0.293939 12.1882 0.552397 12.1882 0.870194C12.1882 1.18891 12.449 1.44798 12.7693 1.44798C13.0898 1.44798 13.3503 1.18891 13.3503 0.870194C13.3503 0.552397 13.0898 0.293939 12.7693 0.293939ZM12.7693 1.74161C12.2855 1.74161 11.8923 1.35102 11.8923 0.870194C11.8923 0.390287 12.2855 0 12.7693 0C13.2527 0 13.6459 0.390287 13.6459 0.870194C13.6459 1.35102 13.2527 1.74161 12.7693 1.74161Z" fill="white"/><path fill-rule="evenodd" clip-rule="evenodd" d="M2.27537 19.2204C2.27537 19.3896 2.13804 19.5257 1.96807 19.5257C1.79841 19.5257 1.66077 19.3896 1.66077 19.2204C1.66077 19.0519 1.79841 18.9158 1.96807 18.9158C2.13804 18.9158 2.27537 19.0519 2.27537 19.2204Z" fill="white"/><path fill-rule="evenodd" clip-rule="evenodd" d="M1.96811 19.0626C1.88035 19.0626 1.8086 19.1336 1.8086 19.2204C1.8086 19.3076 1.88035 19.3789 1.96811 19.3789C2.05617 19.3789 2.12761 19.3076 2.12761 19.2204C2.12761 19.1336 2.05617 19.0626 1.96811 19.0626ZM1.96811 19.6725C1.71715 19.6725 1.5127 19.4694 1.5127 19.2204C1.5127 18.9711 1.71715 18.7687 1.96811 18.7687C2.21906 18.7687 2.42352 18.9711 2.42352 19.2204C2.42352 19.4694 2.21906 19.6725 1.96811 19.6725Z" fill="white"/><path fill-rule="evenodd" clip-rule="evenodd" d="M1.9681 19.1076C1.90528 19.1076 1.85386 19.1577 1.85386 19.2204C1.85386 19.2834 1.90528 19.3339 1.9681 19.3339C2.03122 19.3339 2.08234 19.2834 2.08234 19.2204C2.08234 19.1577 2.03122 19.1076 1.9681 19.1076ZM1.9681 19.9447C1.56596 19.9447 1.23926 19.6202 1.23926 19.2204C1.23926 18.821 1.56596 18.4967 1.9681 18.4967C2.36993 18.4967 2.69694 18.821 2.69694 19.2204C2.69694 19.6202 2.36993 19.9447 1.9681 19.9447Z" fill="white"/><path fill-rule="evenodd" clip-rule="evenodd" d="M1.96807 19.481C1.82366 19.481 1.70603 19.3642 1.70603 19.2204C1.70603 19.077 1.82366 18.9604 1.96807 18.9604C2.11279 18.9604 2.23042 19.077 2.23042 19.2204C2.23042 19.3642 2.11279 19.481 1.96807 19.481ZM1.96807 18.6435C1.64784 18.6435 1.38734 18.9026 1.38734 19.2204C1.38734 19.5388 1.64784 19.7979 1.96807 19.7979C2.28862 19.7979 2.54911 19.5388 2.54911 19.2204C2.54911 18.9026 2.28862 18.6435 1.96807 18.6435ZM1.96807 20.0918C1.48495 20.0918 1.09143 19.7006 1.09143 19.2204C1.09143 18.7405 1.48495 18.3499 1.96807 18.3499C2.4515 18.3499 2.84472 18.7405 2.84472 19.2204C2.84472 19.7006 2.4515 20.0918 1.96807 20.0918Z" fill="white"/><path fill-rule="evenodd" clip-rule="evenodd" d="M7.02994 17.6088L13.6763 25.6397L20.3224 17.313L24.0048 6.83401L13.0645 4.76023L2.25105 6.81168L7.02994 17.6088ZM13.684 26.4732L6.56221 17.8523L1.5022 6.42139L13.0645 4.22649L13.1135 4.23597L24.7038 6.43332L20.7911 17.5697L20.7634 17.6039L13.684 26.4732Z" fill="white"/><path fill-rule="evenodd" clip-rule="evenodd" d="M7.15715 17.5311L13.6745 25.406L20.1913 17.2411L23.8087 6.94623L13.0646 4.90946L2.4614 6.92115L7.15715 17.5311ZM13.6785 25.8736L6.89449 17.6681L2.04078 6.70185L13.0646 4.61032L13.0923 4.61552L24.201 6.72142L20.4386 17.4045L13.6785 25.8736ZM6.68942 17.7749L13.6819 26.2394L20.66 17.4971L24.5077 6.54585L13.0639 4.37603L1.71224 6.53087L6.68942 17.7749ZM13.6859 26.7074L6.42677 17.9116L1.29224 6.31156L13.0652 4.07658L13.1425 4.09188L24.9 6.32073L20.9063 17.6617L20.8786 17.6963L13.6859 26.7074Z" fill="white"/><path fill-rule="evenodd" clip-rule="evenodd" d="M15.138 10.7932L15.098 10.8776C14.9145 11.2666 14.7242 11.6609 14.5283 12.0594C14.3316 12.458 14.1367 12.8538 13.9414 13.2517L13.4602 14.2687L13.3157 14.555C13.2295 14.384 13.1452 14.2121 13.0629 14.0399L12.6824 13.2499C12.4881 12.8538 12.2925 12.4592 12.0958 12.0634C11.8981 11.6722 11.7038 11.2773 11.5101 10.8763L11.4701 10.7932H10.8613V16.3318H11.5249V12.3831L13.0793 15.4934H13.5701L13.6104 15.4102C13.7527 15.1166 13.8952 14.8257 14.0363 14.5379L14.0501 14.5094C14.1961 14.2137 14.3473 13.9081 14.508 13.5909L14.6038 13.3915C14.7048 13.182 14.8073 12.9691 14.9092 12.7516C14.9594 12.6476 15.0099 12.5415 15.0613 12.4335V16.3318H15.7255V10.7932H15.138Z" fill="white"/></svg>